# xmcd
#
# Track frame offsets:
#	150
#	16501
#	29468
#	43597
#	56102
#	70901
#	83816
#	96922
#	107650
#	120619
#	134118
#
# Disc length: 1982 seconds
#
# Revision: 0
# Processed by: cddbd v1.5.2PL0 Copyright (c) Steve Scherf et al.
# Submitted via: EasyCDDAExtractor 16.0.8.1
#
DISCID=9307bc0b
DTITLE=THIRSTY - ALBATROSS
DYEAR=1900
DGENRE=
TTITLE0=THE ALBATROSS
TTITLE1=CHAOS
TTITLE2=ORLANDO
TTITLE3=SAY IT AIN'T SO JOE
TTITLE4=BLACK HOLE
TTITLE5=BEAT OF HER HEART
TTITLE6=VA BANQUE
TTITLE7=SHORE OF LIGHT
TTITLE8=PARLIAMENT OF FOOLS
TTITLE9=COSMIC APHRODITE 
TTITLE10=PATRIOTIC LITTLE TRASH
EXTD=
EXTT0=
EXTT1=
EXTT2=
EXTT3=
EXTT4=
EXTT5=
EXTT6=
EXTT7=
EXTT8=
EXTT9=
EXTT10=
PLAYORDER=
